<svg xmlns="http://www.w3.org/2000/svg" viewBox="0 0 512 512" width="512" height="512" role="img" aria-label="Nordic Art Archive">

<rect width="512" height="512" fill="#0e0e0e"></rect>
<g stroke="#ffd43a" stroke-width="3.88" fill="none" stroke-linecap="square"><path d="M23.3 62.1 V23.3 H62.1"></path><path d="M488.7 449.9 V488.7 H449.9"></path></g>
<g transform="translate(50.3 279.3) rotate(-90)"><text text-anchor="middle" font-family="Archivo, sans-serif" font-weight="600" font-size="31.0" letter-spacing="9.31" fill="#ffd43a">ARCHIVE · 2026</text></g>
<text x="283.2" y="279.3" text-anchor="middle" dominant-baseline="central" font-family="Archivo, sans-serif" font-weight="800" font-size="201.7" letter-spacing="-8.07" fill="#ffd43a"><tspan>n</tspan><tspan font-style="italic">aa</tspan></text>
<rect x="85.33" y="368.48" width="12.41" height="50.42" fill="#ffd43a"></rect><rect x="103.95" y="368.48" width="6.21" height="50.42" fill="#ffd43a"></rect><rect x="128.78" y="368.48" width="6.21" height="50.42" fill="#ffd43a"></rect><rect x="147.39" y="368.48" width="6.21" height="50.42" fill="#ffd43a"></rect><rect x="159.81" y="368.48" width="24.82" height="50.42" fill="#ffd43a"></rect><rect x="190.84" y="368.48" width="12.41" height="50.42" fill="#ffd43a"></rect><rect x="209.45" y="368.48" width="18.62" height="50.42" fill="#ffd43a"></rect><rect x="234.28" y="368.48" width="6.21" height="50.42" fill="#ffd43a"></rect><rect x="252.90" y="368.48" width="6.21" height="50.42" fill="#ffd43a"></rect><rect x="265.31" y="368.48" width="18.62" height="50.42" fill="#ffd43a"></rect><rect x="296.34" y="368.48" width="6.21" height="50.42" fill="#ffd43a"></rect><rect x="308.75" y="368.48" width="12.41" height="50.42" fill="#ffd43a"></rect><rect x="345.99" y="368.48" width="6.21" height="50.42" fill="#ffd43a"></rect><rect x="364.61" y="368.48" width="6.21" height="50.42" fill="#ffd43a"></rect><rect x="377.02" y="368.48" width="18.62" height="50.42" fill="#ffd43a"></rect><rect x="401.84" y="368.48" width="12.41" height="50.42" fill="#ffd43a"></rect><rect x="420.46" y="368.48" width="6.21" height="50.42" fill="#ffd43a"></rect>
<text x="85.3" y="469.3" font-family="&#39;Space Mono&#39;, monospace" font-size="31.0" fill="#ffd43a">NO·2026</text>
<text x="426.7" y="469.3" text-anchor="end" font-family="&#39;Space Mono&#39;, monospace" font-size="31.0" fill="#ffd43a">59°57′N</text>
</svg>
